<svg xmlns="http://www.w3.org/2000/svg" xmlns:xlink="http://www.w3.org/1999/xlink" width="15" height="15" viewBox="0 0 15 15"><defs><style>.a{fill:#fff;stroke:#70a1ff;stroke-width:2px;}.b{clip-path:url(#a);}.c{fill:#3fc180;}</style><clipPath id="a"><path class="a" d="M-1040.083,684.483a7.5,7.5,0,0,1-7.5,7.5,7.5,7.5,0,0,1-7.5-7.5,7.5,7.5,0,0,1,7.5-7.5A7.5,7.5,0,0,1-1040.083,684.483Z" transform="translate(2119.972 -204.483)"/></clipPath></defs><g class="b" transform="translate(-1064.889 -472.5)"><path class="c" d="M677.084-1592.279a7.5,7.5,0,0,1-7.5,7.5,7.5,7.5,0,0,1-7.5-7.5,7.5,7.5,0,0,1,7.5-7.5A7.5,7.5,0,0,1,677.084-1592.279Zm-8.368,3.971,5.565-5.565a.485.485,0,0,0,0-.685l-.684-.684a.483.483,0,0,0-.685,0l-4.538,4.538-2.119-2.119a.483.483,0,0,0-.684,0l-.685.684a.484.484,0,0,0,0,.684l3.145,3.146a.485.485,0,0,0,.685,0Z" transform="translate(402.804 2072.279)"/></g></svg>