<svg xmlns="http://www.w3.org/2000/svg" width="9.997" height="10" viewBox="0 0 9.997 10"><defs><style>.a{fill:#ff6b81;}</style></defs><path class="a" d="M9.921.373A.31.31,0,0,0,9.682.135,7.088,7.088,0,0,0,8.071,0,4.66,4.66,0,0,0,3.945,2.5H1.91a.937.937,0,0,0-.837.517L.107,4.947a.469.469,0,0,0,.42.678H2.553l-.439.439a.625.625,0,0,0,0,.884l.994.994a.625.625,0,0,0,.884,0L4.432,7.5V9.531a.469.469,0,0,0,.678.42l1.928-.965a.936.936,0,0,0,.518-.838V6.109a4.676,4.676,0,0,0,2.5-4.123A6.928,6.928,0,0,0,9.921.373ZM7.557,3.281A.781.781,0,1,1,8.338,2.5a.781.781,0,0,1-.781.781Z" transform="translate(-0.058)"/></svg>